<?xml version="1.0" encoding="UTF-8"?><svg id="Layer_1" xmlns="http://www.w3.org/2000/svg" viewBox="0 0 146.03 14.13"><defs><style>.cls-1{fill:#fff;}</style></defs><g id="cloud"><path class="cls-1" d="M19.27,14.13H4.77C2.14,14.14,0,12.01,0,9.38c0-2.63,2.12-4.76,4.75-4.77,.2,0,.4,.01,.59,.04C6.57,1.06,10.48-.86,14.08,.37c2.03,.7,3.62,2.3,4.29,4.33,.3-.06,.6-.09,.91-.09,2.63,0,4.76,2.13,4.76,4.76s-2.13,4.76-4.76,4.76h0ZM4.77,5.64c-2.06,0-3.74,1.67-3.74,3.74s1.67,3.74,3.74,3.74h14.5c2.06-.02,3.72-1.7,3.71-3.77s-1.7-3.72-3.77-3.71c-.35,0-.71,.06-1.05,.16-.13,.04-.28,.03-.4-.04-.13-.07-.22-.18-.26-.32-.8-3.13-3.99-5.02-7.12-4.22-2.05,.52-3.65,2.11-4.2,4.14-.07,.26-.34,.43-.61,.37-.27-.06-.54-.08-.81-.08Z"/></g><path class="cls-1" d="M12.02,7.06c1.37,0,2.47-1.11,2.47-2.47s-1.11-2.47-2.47-2.47-2.47,1.11-2.47,2.47,1.11,2.47,2.47,2.47Zm-2.32,3.25c0,.26,.21,.46,.46,.46s.46-.21,.46-.46-.21-.46-.46-.46-.46,.21-.46,.46Zm4.17-2.62v.95c.71,.14,1.24,.77,1.24,1.52v.81c0,.15-.1,.27-.25,.3l-.62,.12c-.08,.02-.16-.04-.18-.12l-.06-.3c-.02-.08,.04-.17,.12-.18l.37-.08v-.55c0-1.21-1.86-1.26-1.86,.04v.52l.37,.08c.08,.02,.14,.1,.12,.18l-.06,.3c-.02,.08-.1,.14-.18,.12l-.6-.08c-.15-.02-.27-.15-.27-.31v-.85c0-.75,.53-1.37,1.24-1.52v-.87s-.09,.02-.13,.04c-.35,.12-.72,.19-1.11,.19s-.76-.07-1.11-.19c-.14-.05-.29-.08-.44-.1v1.58c.45,.13,.77,.54,.77,1.03,0,.6-.49,1.08-1.08,1.08s-1.08-.49-1.08-1.08c0-.49,.33-.9,.77-1.03v-1.55c-1.23,.21-2.17,1.27-2.17,2.55v.87c0,.48,.39,.87,.87,.87h6.93c.48,0,.87-.39,.87-.87v-.87c0-1.39-1.1-2.52-2.47-2.59h0Z"/><g><g><path class="cls-1" d="M26.36,1.07h2.01l3.26,9.91h.04l3.26-9.91h2.02l-4.27,11.98h-2.06L26.36,1.07Z"/><path class="cls-1" d="M38.1,2.67c-.2-.2-.31-.44-.31-.73s.1-.54,.31-.74c.2-.2,.45-.3,.74-.3s.54,.1,.74,.3c.2,.2,.3,.45,.3,.74s-.1,.52-.3,.73c-.2,.2-.45,.3-.74,.3s-.53-.1-.74-.3Zm-.17,1.65h1.81V13.05h-1.81V4.32Z"/><path class="cls-1" d="M41.58,4.32h1.81v1.49h.03c.14-.51,.38-.92,.74-1.22,.35-.3,.78-.44,1.28-.44,.13,0,.25,0,.36,.02s.2,.03,.26,.05v1.67c-.07-.03-.18-.05-.32-.07-.14-.02-.3-.03-.48-.03-.38,0-.71,.08-1,.24s-.5,.4-.65,.71-.22,.68-.22,1.11v5.21h-1.81V4.32Z"/><path class="cls-1" d="M48.7,12.64c-.42-.39-.64-1.02-.64-1.9V5.74h-1.25v-1.43h1.25V2.04h1.84v2.28h1.64v1.43h-1.64v4.9c0,.44,.1,.75,.29,.91,.19,.16,.48,.24,.86,.24,.09,0,.18,0,.26-.01,.08,0,.15-.02,.22-.02v1.39c-.11,.02-.24,.03-.4,.05-.16,.02-.33,.02-.51,.02-.86,0-1.51-.2-1.93-.59Z"/><path class="cls-1" d="M54.36,12.83c-.45-.26-.8-.64-1.03-1.13-.24-.49-.36-1.07-.36-1.74V4.32h1.81v5.31c0,.66,.15,1.16,.46,1.52s.77,.53,1.39,.53c.42,0,.79-.09,1.1-.28,.31-.19,.55-.45,.72-.79,.17-.34,.25-.73,.25-1.18V4.32h1.8V13.05h-1.8v-1.31h-.04c-.23,.44-.56,.8-1.01,1.08-.45,.27-1,.41-1.66,.41s-1.18-.13-1.63-.39Z"/><path class="cls-1" d="M63.32,12.88c-.44-.22-.78-.53-1.02-.93-.24-.4-.37-.86-.37-1.38v-.02c0-.76,.28-1.37,.85-1.81,.57-.45,1.37-.7,2.4-.76l3.3-.2v1.26l-3.06,.19c-.54,.03-.95,.16-1.24,.39s-.44,.52-.44,.89v.02c0,.38,.15,.68,.44,.91s.68,.33,1.16,.33c.42,0,.8-.09,1.13-.26,.33-.17,.6-.41,.79-.71,.19-.3,.29-.64,.29-1.02v-2.6c0-.48-.15-.86-.45-1.13s-.73-.41-1.29-.41c-.51,0-.93,.11-1.24,.33-.31,.22-.51,.51-.59,.86l-.02,.07h-1.69v-.09c.05-.5,.22-.96,.51-1.36,.29-.4,.7-.72,1.22-.95,.52-.23,1.14-.35,1.85-.35s1.33,.12,1.85,.36c.52,.24,.92,.57,1.21,1,.29,.43,.43,.94,.43,1.52v6.02h-1.81v-1.38h-.03c-.17,.32-.39,.59-.66,.82-.27,.23-.58,.41-.92,.53s-.7,.19-1.09,.19c-.58,0-1.09-.11-1.53-.33Z"/><path class="cls-1" d="M71.17,1.07h1.8V13.05h-1.8V1.07Z"/><path class="cls-1" d="M77.58,1.07h2.01l3.26,9.91h.04l3.26-9.91h2.02l-4.27,11.98h-2.06l-4.27-11.98Z"/><path class="cls-1" d="M89.31,2.67c-.2-.2-.31-.44-.31-.73s.1-.54,.31-.74c.2-.2,.45-.3,.74-.3s.54,.1,.74,.3c.2,.2,.3,.45,.3,.74s-.1,.52-.3,.73c-.2,.2-.45,.3-.74,.3s-.53-.1-.74-.3Zm-.17,1.65h1.81V13.05h-1.81V4.32Z"/><path class="cls-1" d="M94.2,12.89c-.52-.22-.93-.54-1.23-.94s-.48-.87-.54-1.4v-.07s1.77,0,1.77,0l.02,.08c.09,.4,.29,.71,.59,.93,.3,.22,.73,.34,1.28,.34,.37,0,.68-.05,.93-.14,.25-.09,.45-.22,.59-.39,.14-.17,.21-.38,.21-.61h0c0-.29-.09-.52-.27-.69s-.51-.32-.98-.43l-1.43-.32c-.83-.19-1.45-.49-1.86-.89-.41-.41-.62-.93-.62-1.56h0c0-.53,.14-1,.42-1.39s.68-.7,1.19-.92c.51-.22,1.1-.33,1.77-.33s1.28,.12,1.78,.35,.89,.55,1.17,.95c.28,.4,.43,.85,.46,1.34v.1h-1.69v-.06c-.06-.38-.23-.69-.52-.93-.29-.24-.69-.36-1.2-.36-.32,0-.6,.05-.84,.14-.24,.09-.42,.23-.55,.4-.13,.17-.19,.38-.19,.61h0c0,.27,.1,.5,.3,.69s.53,.33,1,.44l1.43,.33c.89,.2,1.52,.49,1.9,.87s.56,.88,.56,1.51h0c0,.54-.15,1.01-.46,1.41-.3,.4-.72,.72-1.26,.95-.53,.23-1.14,.34-1.83,.34-.73,0-1.36-.11-1.88-.34Z"/><path class="cls-1" d="M101.26,2.67c-.2-.2-.31-.44-.31-.73s.1-.54,.31-.74c.2-.2,.45-.3,.74-.3s.54,.1,.74,.3c.2,.2,.3,.45,.3,.74s-.1,.52-.3,.73c-.2,.2-.45,.3-.74,.3s-.53-.1-.74-.3Zm-.17,1.65h1.81V13.05h-1.81V4.32Z"/><path class="cls-1" d="M105.88,12.64c-.42-.39-.64-1.02-.64-1.9V5.74h-1.25v-1.43h1.25V2.04h1.84v2.28h1.64v1.43h-1.64v4.9c0,.44,.1,.75,.29,.91,.19,.16,.48,.24,.86,.24,.09,0,.18,0,.26-.01,.08,0,.15-.02,.22-.02v1.39c-.11,.02-.24,.03-.4,.05-.16,.02-.33,.02-.51,.02-.86,0-1.51-.2-1.93-.59Z"/><path class="cls-1" d="M113.86,1.07h4.23c1.19,0,2.21,.23,3.05,.7,.84,.47,1.49,1.14,1.94,2.03,.45,.89,.68,1.96,.68,3.22v.02c0,1.26-.22,2.34-.67,3.24s-1.09,1.59-1.94,2.06c-.84,.47-1.86,.71-3.06,.71h-4.23V1.07Zm4.05,10.37c.85,0,1.56-.17,2.15-.51,.59-.34,1.03-.83,1.34-1.49,.3-.65,.46-1.45,.46-2.39v-.02c0-.94-.15-1.73-.46-2.38s-.75-1.14-1.34-1.48c-.58-.33-1.3-.5-2.15-.5h-2.19V11.44h2.19Z"/><path class="cls-1" d="M126.89,12.67c-.62-.37-1.11-.89-1.45-1.57-.34-.68-.51-1.48-.51-2.42v-.02c0-.93,.17-1.73,.52-2.41,.35-.68,.83-1.2,1.45-1.56s1.35-.55,2.17-.55,1.56,.18,2.18,.54,1.11,.88,1.45,1.56c.35,.68,.52,1.48,.52,2.42v.02c0,.94-.17,1.75-.52,2.42-.35,.68-.83,1.2-1.45,1.57-.62,.37-1.35,.55-2.18,.55s-1.57-.18-2.19-.55Zm3.41-1.32c.34-.24,.61-.58,.8-1.03,.19-.45,.28-1,.28-1.64v-.02c0-.64-.09-1.18-.28-1.63-.19-.45-.46-.79-.81-1.03s-.76-.35-1.22-.35-.86,.12-1.21,.36c-.35,.24-.62,.58-.81,1.03-.19,.45-.29,.99-.29,1.63v.02c0,.64,.1,1.19,.29,1.64s.46,.8,.81,1.03,.76,.36,1.23,.36,.87-.12,1.21-.36Z"/><path class="cls-1" d="M136.16,12.67c-.62-.37-1.1-.9-1.44-1.58-.34-.68-.5-1.49-.5-2.42h0c0-.93,.17-1.73,.51-2.41s.82-1.2,1.44-1.57c.62-.37,1.35-.55,2.18-.55,.75,0,1.39,.14,1.94,.43,.55,.29,.97,.66,1.28,1.13,.31,.47,.49,.98,.54,1.53v.07s-1.71,0-1.71,0l-.02-.07c-.09-.43-.31-.8-.64-1.11-.34-.31-.8-.47-1.38-.47-.46,0-.86,.12-1.21,.37-.35,.25-.61,.6-.81,1.05s-.29,.99-.29,1.61h0c0,.64,.1,1.19,.29,1.64,.19,.45,.46,.8,.81,1.03,.35,.24,.75,.36,1.22,.36,.55,0,1-.15,1.34-.44s.57-.67,.68-1.14v-.07h1.74v.06c-.07,.58-.26,1.11-.59,1.57-.33,.47-.76,.84-1.3,1.11s-1.16,.41-1.86,.41c-.85,0-1.58-.19-2.2-.56Z"/></g><g><path class="cls-1" d="M143.28,11.75h-.55v-.25h1.39v.25h-.55v1.48h-.29v-1.48Z"/><path class="cls-1" d="M144.33,11.49h.36l.49,1.38,.51-1.38h.34v1.73h-.27v-1.26l-.48,1.26h-.23l-.46-1.26v1.26h-.26v-1.73Z"/></g></g></svg>